<?xml version="1.0"?>
<svg xmlns="http://www.w3.org/2000/svg" xmlns:xlink="http://www.w3.org/1999/xlink" version="1.1" id="Layer_1" x="0px" y="0px" viewBox="0 0 512 512" style="enable-background:new 0 0 512 512;" xml:space="preserve" width="512px" height="512px" class=""><g><g>
	<g>
		<path d="M498.482,392.175l-37.1-25.44c-3.221-2.209-7.206-3-11.029-2.184l-22.208,4.734l-18.726-41.985l34.888-7.651    c7.686-1.685,12.55-9.283,10.864-16.969c-1.685-7.686-9.281-12.55-16.969-10.864l-44.625,9.786    c-8.244-5.075-19-4.596-26.819,1.939c10.454,14.35,61.057,83.813,68.08,93.451l15.472-3.298l32.055,21.981    c6.492,4.452,15.359,2.794,19.807-3.692C506.624,405.493,504.971,396.624,498.482,392.175z" data-original="#000000" class="active-path" data-old_color="#000000" fill="#FFFFFF"/>
	</g>
</g><g>
	<g>
		<path d="M395.266,243.582c-7.715-17.297-27.992-25.067-45.289-17.352c-11.272,5.027-18.493,15.39-20.024,26.786l27.888,38.28    c6.556,1.192,13.527,0.494,20.073-2.425C395.211,281.156,402.98,260.879,395.266,243.582z" data-original="#000000" class="active-path" data-old_color="#000000" fill="#FFFFFF"/>
	</g>
</g><g>
	<g>
		<path d="M220.195,250.931c-1.361-1.726-2.435-3.104-2.878-3.711c-3.142-4.313-4.61-9.776-3.72-15.518    c-1.165,0.03,5.382-0.082-27.523,0.474c-0.636,10.813,2.336,21.832,9.127,31.156c0.688,0.944,1.484,2.034,2.349,3.219    c2.382,3.26,6.033,5.358,10.048,5.784c4.015,0.426,8.035-0.857,11.045-3.549c0.003-0.003,0.007-0.006,0.01-0.009    C223.81,264.167,224.48,256.362,220.195,250.931z" data-original="#000000" class="active-path" data-old_color="#000000" fill="#FFFFFF"/>
	</g>
</g><g>
	<g>
		<circle cx="96.665" cy="41.886" r="41.886" data-original="#000000" class="active-path" data-old_color="#000000" fill="#FFFFFF"/>
	</g>
</g><g>
	<g>
		<path d="M212.287,174.783l-65.647,1.109l-34.926-50.676l40.85,31.593l-7.159-36.168c-2.448-12.367-13.296-21.307-25.903-21.307    c-16.237,0-27.656,0-45.677,0c-12.634,0-23.451,8.914-25.904,21.307L7.544,324.632c-1.379,6.965,3.986,13.42,11.014,13.42    c6.443,0,14.808,0,24.365,0v149.696c0,13.394,10.858,24.253,24.253,24.253c13.394,0,24.253-10.857,24.253-24.253V338.052    c3.487,0,6.983,0,10.471,0v149.696c0,13.394,10.858,24.253,24.253,24.253c13.395,0,24.253-10.857,24.253-24.253V338.052    c9.559,0,17.924,0,24.365,0c7.067,0,12.39-6.466,11.013-13.42c-3.513-17.748-14.743-74.485-18.238-92.142    c-23.715,0.4-22.486,0.38-38.064,0.643c-10.974,0.186-20.424-6.771-23.953-16.549l-25.071-69.828l40.701,59.057    c3.546,5.146,9.392,8.21,15.628,8.21c0.107,0,0.215,0,0.322-0.002l75.823-1.282c10.481-0.177,18.834-8.818,18.656-19.298    C231.407,182.959,222.763,174.599,212.287,174.783z" data-original="#000000" class="active-path" data-old_color="#000000" fill="#FFFFFF"/>
	</g>
</g><g>
	<g>
		<path d="M471.246,452.102c-5.791-4.691-13.159-7.509-21.175-7.509c-1.163,0-2.312,0.059-3.445,0.174L273.103,206.58    c-5.688-7.809-13.485-13.735-22.772-17.022c1.059,9.602-1.506,19.007-7.106,26.638c3.028,1.46,5.697,3.661,7.763,6.496    l39.116,53.694c0,18.836,0,76.217,0,93.19c0,21.041,8.057,40.196,21.246,54.564l-14.514,20.917    c-1.803-0.3-3.652-0.463-5.538-0.463c-18.585,0-33.703,15.119-33.703,33.703c0,18.583,15.119,33.702,33.703,33.702    c18.583,0,33.702-15.119,33.702-33.702c0-6.681-1.962-12.909-5.328-18.152l13.354-19.244c11.278,5.989,24.139,9.396,37.798,9.396    h22.955h23.02l5.999,8.235c-4.039,5.557-6.43,12.386-6.43,19.767c0,18.504,15.062,33.702,33.702,33.702    c18.585,0,33.703-15.119,33.703-33.702C483.773,467.729,478.88,458.286,471.246,452.102z M291.297,484.637    c-3.496,0-6.34-2.844-6.34-6.34s2.844-6.34,6.34-6.34s6.34,2.844,6.34,6.34S294.793,484.637,291.297,484.637z M450.07,484.637    c-3.496,0-6.34-2.844-6.34-6.34s2.844-6.34,6.34-6.34s6.34,2.844,6.34,6.34S453.566,484.637,450.07,484.637z" data-original="#000000" class="active-path" data-old_color="#000000" fill="#FFFFFF"/>
	</g>
</g></g> </svg>
