<?xml version="1.0"?>
<svg xmlns="http://www.w3.org/2000/svg" xmlns:xlink="http://www.w3.org/1999/xlink" version="1.1" id="Layer_1" x="0px" y="0px" viewBox="0 0 512.001 512.001" style="enable-background:new 0 0 512.001 512.001;" xml:space="preserve" width="512px" height="512px" class=""><g><g>
	<g>
		<path d="M492.989,356.001c0-8.051-6.527-14.577-14.578-14.577H355.557c0.968-2.257,1.266-4.77,0.779-7.23l-7.018-35.457    c-20.14,8.873-18.9,8.37-20.95,9.1c8.731,8.876,14.123,21.048,14.123,34.482c0,5.49,0,42.299,0,55.608h75.456v109.155    c0,2.716,2.202,4.919,4.919,4.919h30.739c2.717,0,4.919-2.202,4.919-4.919V397.928h19.888c8.051,0,14.578-6.527,14.578-14.577    v-27.349H492.989z" data-original="#000000" class="active-path" data-old_color="#000000" fill="#FFFFFF"/>
	</g>
</g><g>
	<g>
		<path d="M257.078,278.959c-18.835,6.481-21.333,7.814-28.035,7.814c-16.724,0-30.536-12.95-31.781-29.476l-19.576-4.732    l-16.156,81.628c-0.487,2.46-0.187,4.974,0.785,7.23H33.59c-8.051,0-14.578,6.527-14.578,14.577v27.347    c0,8.051,6.527,14.577,14.578,14.577h19.888v109.155c0,2.716,2.202,4.919,4.919,4.919h30.739c2.717,0,4.919-2.202,4.919-4.919    V397.924h85.265c0-13.602,0-49.595,0-55.608c0-17.438,9.084-32.746,22.77-41.479c7.632-4.871,16.689-7.705,26.413-7.705    c11.806,0,23.253,4.174,32.404,12.2c3.388-2.97,7.075-5.458,11.505-7.543L257.078,278.959z" data-original="#000000" class="active-path" data-old_color="#000000" fill="#FFFFFF"/>
	</g>
</g><g>
	<g>
		<path d="M216.146,261.862c2.576,4.785,7.583,7.698,12.898,7.698c3.112,0,4.344-0.654,12.328-3.401L216.146,261.862z" data-original="#000000" class="active-path" data-old_color="#000000" fill="#FFFFFF"/>
	</g>
</g><g>
	<g>
		<path d="M413.638,228.477c-0.491-1.229-9.109-21.92-18.792-43.487c-0.087,0.103-0.167,0.211-0.256,0.314    c-8.8,10.292-21.619,16.195-35.167,16.195c-13.053,0-25.925-5.575-34.972-15.988l-23.388-15.348    c-6.768-4.441-15.858-2.556-20.298,4.213c-4.442,6.769-2.555,15.856,4.212,20.298l29.239,19.187l-38.608,16.716    c-0.355,10.53-5.207,20.68-13.835,27.568l14.374,16.155c-1.31-12.557,3.61-25.19,14.377-32.461    c7.126-4.813,15.293-8.007,23.8-9.266l49.721-7.351l-57.714,25.423c-11.225,4.944-16.316,18.051-11.372,29.277    c4.949,11.238,18.067,16.311,29.277,11.372l77.735-34.241C412.926,252.229,418.086,239.59,413.638,228.477z M364.047,225.222    l0.001-0.003c0,0.001,0.001,0.002,0.001,0.002L364.047,225.222z" data-original="#000000" class="active-path" data-old_color="#000000" fill="#FFFFFF"/>
	</g>
</g><g>
	<g>
		<path d="M359.451,126.209c-15.917,0-28.773,12.755-29.047,28.516c-0.285,16.34,12.889,29.561,29.021,29.561    c15.906,0,28.773-12.75,29.047-28.516C388.756,139.473,375.628,126.209,359.451,126.209z" data-original="#000000" class="active-path" data-old_color="#000000" fill="#FFFFFF"/>
	</g>
</g><g>
	<g>
		<path d="M228.501,315.667c-14.719,0-26.65,11.932-26.65,26.651v142.934c0,14.719,11.931,26.651,26.65,26.651    c14.703,0,26.65-11.943,26.65-26.651V342.319C255.151,327.627,243.22,315.667,228.501,315.667z" data-original="#000000" class="active-path" data-old_color="#000000" fill="#FFFFFF"/>
	</g>
</g><g>
	<g>
		<path d="M293.309,315.667c-14.719,0-26.651,11.932-26.651,26.651v142.934c0,14.719,11.932,26.651,26.651,26.651    c14.719,0,26.651-11.932,26.651-26.651V342.319C319.959,327.599,308.028,315.667,293.309,315.667z" data-original="#000000" class="active-path" data-old_color="#000000" fill="#FFFFFF"/>
	</g>
</g><g>
	<g>
		<path d="M359.117,109.003c-9.478-12.535-24.516-20.267-40.52-20.267h-9.212c-12.155,13.713-29.577,21.763-48.24,21.763    c-19.18,0-36.419-8.428-48.24-21.764c-22.758,0-39.574,11.866-47.682,28.542c-8.176,16.812-14.691,30.621-35.26,82.625    c-4.962,12.553,2.337,26.591,15.435,29.758l88.12,21.301c11.923,2.882,23.923-4.449,26.805-16.368    c2.882-11.922-4.447-23.924-16.368-26.805l-63.196-15.276c4.675-11.546,11.455-28.036,16.605-39.355l-5.34,26.976    c12.32,2.978,44.976,10.872,55.379,13.387c10.009,2.419,18.063,8.712,22.969,16.898l5.16-1.35    c-14.692-9.642-18.8-29.44-9.162-44.129c9.718-14.816,29.506-18.763,44.136-9.165l2.75,1.804    C311.907,131.179,332.875,109.192,359.117,109.003z" data-original="#000000" class="active-path" data-old_color="#000000" fill="#FFFFFF"/>
	</g>
</g><g>
	<g>
		<circle cx="261.14" cy="46.026" r="46.026" data-original="#000000" class="active-path" data-old_color="#000000" fill="#FFFFFF"/>
	</g>
</g></g> </svg>
