<?xml version="1.0"?>
<svg xmlns="http://www.w3.org/2000/svg" id="Layer_1" enable-background="new 0 0 511.42 511.42" height="512px" viewBox="0 0 511.42 511.42" width="512px"><g><g><circle cx="255.763" cy="42.093" r="42.093" data-original="#000000" class="active-path" data-old_color="#000000" fill="#FFFFFF"/><g><path d="m309.734 245.578h-53.971c-17.837 0-32.297-14.46-32.297-32.297 0-17.041 13.201-30.989 29.932-32.201l-30.423-83.477h-21.73c-26.827 0-48.76 21.452-48.892 47.822v.102 149.21c0 11.217 9.093 20.31 20.31 20.31s20.31-9.093 20.31-20.31v-149.136c.039-3.865 4.308-7.377 8.608-7.377v348.825c0 13.46 11.089 24.372 24.549 24.372s24.372-10.912 24.372-24.372v-194.809h10.524v194.808c0 13.46 10.912 24.372 24.372 24.372s24.338-10.912 24.338-24.372c-.005-9.696-.002-241.319-.002-241.47z" data-original="#000000" class="active-path" data-old_color="#000000" fill="#FFFFFF"/></g><path d="m314.983 192.972 5.586 40.62h16.356l-18.4-40.62z" data-original="#000000" class="active-path" data-old_color="#000000" fill="#FFFFFF"/><path d="m310.28 97.604h-.208v40.62h.208c4.257 0 8.205 3.511 8.245 7.374v41.665l40.542 27.536v-69.373c-.132-26.37-22.004-47.822-48.787-47.822z" data-original="#000000" class="active-path" data-old_color="#000000" fill="#FFFFFF"/><path d="m298.147 97.604h-19.389-43.078l30.376 83.381h32.091z" data-original="#000000" class="active-path" data-old_color="#000000" fill="#FFFFFF"/><path d="m255.763 192.972c-11.216 0-20.31 9.093-20.31 20.31s9.093 20.31 20.31 20.31h14.381l-12.622-40.62z" data-original="#000000" class="active-path" data-old_color="#000000" fill="#FFFFFF"/><path d="m295.259 233.592 2.249-40.62h-12.328l-1.541 40.62z" data-original="#000000" class="active-path" data-old_color="#000000" fill="#FFFFFF"/></g></g> </svg>
