<?xml version="1.0"?>
<svg xmlns="http://www.w3.org/2000/svg" xmlns:xlink="http://www.w3.org/1999/xlink" version="1.1" id="Layer_1" x="0px" y="0px" viewBox="0 0 512.008 512.008" style="enable-background:new 0 0 512.008 512.008;" xml:space="preserve" width="512px" height="512px" class=""><g><g>
	<path d="M512,458.742l-29.998,0.008v-87.813h-90.004v87.836l-30.004,0.008V310.933h-90.003v147.871l-30.004,0.008V250.929h-90.004   v207.906l-30.004,0.008V190.926H31.976v267.94L0,458.874l0.008,30l512-0.132L512,458.742z M421.998,400.937h30.004v57.821   l-30.004,0.008V400.937z M301.991,340.933h30.003v117.856l-30.003,0.008V340.933z M181.983,280.929h30.004v177.89l-30.004,0.008   V280.929z M61.976,220.926h30.004v237.925l-30.004,0.008V220.926z" data-original="#000000" class="active-path" data-old_color="#000000" fill="#FFFFFF"/>
	<polygon points="378.137,250.782 385.797,279.787 458.311,260.635 439.158,188.122 410.152,195.783 416.182,218.609 82.561,23.134    67.395,49.017 401.305,244.663  " data-original="#000000" class="active-path" data-old_color="#000000" fill="#FFFFFF"/>
</g></g> </svg>
