<?xml version="1.0"?>
<svg xmlns="http://www.w3.org/2000/svg" xmlns:xlink="http://www.w3.org/1999/xlink" version="1.1" id="Capa_1" x="0px" y="0px" viewBox="0 0 476.01 476.01" style="enable-background:new 0 0 476.01 476.01;" xml:space="preserve" width="512px" height="512px" class=""><g><path d="M475.863,129.322l-9.843-47.12c-0.678-3.244-3.538-5.568-6.853-5.568H281.843c-3.314,0-6.175,2.324-6.853,5.568  l-9.843,47.12c-0.431,2.063,0.091,4.211,1.42,5.847s3.325,2.585,5.433,2.585h4.562l8.997,90.264  c-7.059-2.691-14.697-4.196-22.674-4.263l-49.809-49.808c-2.733-2.732-7.166-2.732-9.899,0l-49.808,49.808  c-27.541,0.234-51.064,17.565-60.473,41.879l-82.64-43.394c-2.649-1.393-5.89-0.945-8.064,1.111  c-2.174,2.056-2.801,5.266-1.56,7.989l73.955,162.281l0.76,1.66c1.14,2.489,3.626,4.086,6.364,4.086l342.88,0.01  c3.597,0,6.608-2.726,6.966-6.305l25.471-255.318h11.983c2.107,0,4.104-0.949,5.433-2.585S476.293,131.386,475.863,129.322z   M208.126,188.796l34.944,34.944h-69.888L208.126,188.796z M102.497,289.172c0-28.359,23.072-51.432,51.432-51.432h108.394  c28.359,0,51.432,23.072,51.432,51.432v8.121H102.497V289.172z M103.075,349.954h40.402L110.272,367.4  C106.587,362.186,104.121,356.237,103.075,349.954z M303.149,311.293c5.628,1.215,9.861,6.227,9.861,12.214  c0,6.541-5.053,11.915-11.459,12.447h-55.422l-34.748-18.257c-2.038-1.072-4.474-1.072-6.512,0l-34.748,18.257h-56.654  c-6.406-0.532-11.459-5.906-11.459-12.447c0-5.987,4.232-10.999,9.861-12.214H303.149z M313.176,349.954  c-1.046,6.284-3.511,12.232-7.196,17.446l-33.205-17.446H313.176z M208.126,331.801l101.952,53.566H106.174L208.126,331.801z   M318.461,373.958c6.03-9.151,9.293-19.886,9.293-31.004c0-2.865-1.723-5.325-4.188-6.408c2.188-3.853,3.444-8.301,3.444-13.039  c0-4.663-1.215-9.046-3.339-12.857c2.408-1.107,4.083-3.533,4.083-6.357v-15.121c0-3.288-0.25-6.518-0.72-9.678l67.337-35.355  l-62.4,136.917L318.461,373.958z M89.215,279.513c-0.469,3.153-0.718,6.377-0.718,9.658v15.121c0,2.442,1.252,4.59,3.148,5.842  c-2.306,3.928-3.635,8.497-3.635,13.372c0,4.946,1.366,9.578,3.735,13.545c-1.95,1.243-3.247,3.419-3.247,5.903  c0,11.118,3.263,21.853,9.293,31.004l-13.539,7.113L21.849,244.139L89.215,279.513z M418.254,385.377h-72.866L415.59,231.34  c1.24-2.723,0.613-5.934-1.561-7.989s-5.414-2.504-8.063-1.111l-82.616,43.377c-4.629-11.953-12.668-22.211-22.923-29.586  l-9.795-98.274h152.324L418.254,385.377z M280.614,123.754l6.918-33.12h165.947l6.918,33.12H280.614z" data-original="#000000" class="active-path" data-old_color="#000000" fill="#FFFFFF"/></g> </svg>
