<?xml version="1.0"?>
<svg xmlns="http://www.w3.org/2000/svg" xmlns:xlink="http://www.w3.org/1999/xlink" version="1.1" id="Capa_1" x="0px" y="0px" viewBox="0 0 512.002 512.002" style="enable-background:new 0 0 512.002 512.002;" xml:space="preserve" width="512px" height="512px" class=""><g><g>
	<g>
		<path d="M209.964,263.204l0.037-8.399c0.108-24.901-19.904-45.63-44.804-45.738l-15.196-0.066l0.002,45.544    c-0.037,8.399-6.665,14.971-15.066,14.934s-14.972-6.665-14.936-15.064v-45.35l-14.804-0.064    c-24.899-0.108-45.086,20.254-45.194,45.154l-0.037,8.399c-37.307,24.738-59.771,67.64-59.965,112.339    c-0.319,73.5,58.595,136.782,133.896,137.108c16.498,0.071,30.057-13.37,30.128-29.87c0.073-16.5-13.369-30.057-29.868-30.13    c-41.7-0.179-74.854-35.748-74.674-76.848c0.179-41.4,33.924-75.854,75.324-75.674c41.4,0.18,74.854,34.926,74.674,76.326    c-0.114,26.098-13.412,50.365-33.569,63.477c11.353,10.849,18.186,26.18,18.113,42.979c-0.026,6-0.95,11.697-2.474,17.091    c45.694-21.703,77.695-69.589,77.93-123.287C269.675,331.365,247.056,288.266,209.964,263.204z" data-original="#000000" class="active-path" data-old_color="#000000" fill="#FFFFFF"/>
	</g>
</g><g>
	<g>
		<path d="M195.587,120.001c-41.4-0.179-75.406,33.014-75.586,74.414v14.55l30-0.064v-14.356    c0.108-24.901,20.555-44.652,45.456-44.544h14.544v-30H195.587z" data-original="#000000" class="active-path" data-old_color="#000000" fill="#FFFFFF"/>
	</g>
</g><g>
	<g>
		<path d="M482.131,105.979c-16.5-0.073-30.059,13.369-30.13,29.868c-0.181,41.7-34.706,74.854-75.806,74.674    c-41.4-0.179-75.854-33.924-75.674-75.324c0.18-41.4,34.926-74.854,76.324-74.674c26.1,0.114,49.325,13.412,62.437,33.569    c10.849-11.353,26.179-18.186,42.979-18.113c6,0.026,11.697,0.948,17.089,2.472c-21.7-45.692-68.546-78.215-122.245-78.45    c-44.698-0.194-87.797,22.947-112.857,60.038l-8.401-0.037c-24.901-0.108-45.672,19.904-45.78,44.804L210.001,120h45.586    c8.401,0.037,14.971,6.665,14.934,15.066c-0.037,8.399-6.663,14.971-15.064,14.934h-45.456v16    c-0.108,24.897,20.295,43.892,45.196,44l8.401,0.037c24.736,37.308,67.638,60.289,112.337,60.483    c73.499,0.319,135.74-59.114,136.066-134.414C512.072,119.609,498.631,106.05,482.131,105.979z" data-original="#000000" class="active-path" data-old_color="#000000" fill="#FFFFFF"/>
	</g>
</g></g> </svg>
