<?xml version="1.0"?>
<svg xmlns="http://www.w3.org/2000/svg" xmlns:xlink="http://www.w3.org/1999/xlink" version="1.1" id="Capa_1" x="0px" y="0px" width="512px" height="512px" viewBox="0 0 324.181 324.181" style="enable-background:new 0 0 324.181 324.181;" xml:space="preserve" class=""><g><g>
	<g>
		<path d="M83.842,164.692c-2.308-7.849-4.247-16.489-5.998-23.842l-0.362-0.098c-1.76,6.409-3.705,14.185-5.65,20.719l-9.17,26.854    l30.534,8.178L83.842,164.692z" data-original="#000000" class="active-path" data-old_color="#000000" fill="#FFFFFF"/>
		<path d="M18.127,267.635l121.183,30.805c10.014,2.546,18.131-3.769,18.131-14.096V102.479L18.158,68    C8.132,65.515,0,71.875,0,82.208v162.118C-0.006,254.653,8.114,265.102,18.127,267.635z M64.594,119.995l27.721,7.426    l38.66,129.352l-23.482-6.296l-10.769-36.608l-37.606-10.071l-10.242,30.976l-22.417-6.004L64.594,119.995z" data-original="#000000" class="active-path" data-old_color="#000000" fill="#FFFFFF"/>
		<path d="M267.04,149.192c0-12.008-8.994-15.024-23.632-11.109c-6.747,1.809-10.692,3.23-13.129,4.451v34.689l11.819-3.166    C258.223,169.74,267.04,159.875,267.04,149.192z" data-original="#000000" class="active-path" data-old_color="#000000" fill="#FFFFFF"/>
		<path d="M241.715,190.851l-11.436,3.063v41.254c3.002-0.232,6.936-1.291,12.191-2.698c14.82-3.97,28.144-12.97,28.144-28.558    C270.603,189.11,257.669,186.577,241.715,190.851z" data-original="#000000" class="active-path" data-old_color="#000000" fill="#FFFFFF"/>
		<path d="M306.017,68l-139.283,34.474v181.865c0,10.326,8.117,16.641,18.134,14.096l121.18-30.805    c10.017-2.539,18.134-12.982,18.134-23.31V82.203C324.175,71.881,316.039,65.515,306.017,68z M282.793,227.49    c-9,10.09-23.815,18.005-47.069,24.241c-12.751,3.416-22.323,5.047-28.327,5.894V133.461c7.319-3.458,20.63-8.342,33.759-11.853    c16.879-4.534,27.571-5.142,36.005-1.583c7.886,2.576,13.135,9.436,13.135,20.302c0,11.624-7.308,24.092-21.008,32.823v0.561    c13.316-0.177,25.507,7.051,25.507,24.296C294.801,209.258,289.917,219.391,282.793,227.49z" data-original="#000000" class="active-path" data-old_color="#000000" fill="#FFFFFF"/>
		<path d="M143.025,26.825L27.654,51.086c-10.114,2.128-10.181,5.889-0.161,8.406l133.839,33.634l137.438-34.48    c10.022-2.515,9.938-6.193-0.194-8.22L179.679,26.645C169.547,24.621,153.139,24.7,143.025,26.825z M232.223,45.333l-15.485,4.838    c-4.396-1.988-11.423-4.326-21.58-6.333c-25.354-4.983-53.036-3.501-70.707,6.071c-16.243,8.792-10.586,17.473,16.974,22.883    c9.073,1.778,19.777,3.081,27.41,3.456l-6.884,6.455c-6.896-0.226-20.478-1.61-35.646-4.585    c-39.583-7.773-49.005-20.42-26.545-32.586c24.208-13.104,67.492-15.388,105.592-7.898    C220.33,40.58,229.014,43.655,232.223,45.333z" data-original="#000000" class="active-path" data-old_color="#000000" fill="#FFFFFF"/>
	</g>
</g></g> </svg>
