<?xml version="1.0" encoding="UTF-8" standalone="no"?>
<svg
   xmlns:dc="http://purl.org/dc/elements/1.1/"
   xmlns:cc="http://creativecommons.org/ns#"
   xmlns:rdf="http://www.w3.org/1999/02/22-rdf-syntax-ns#"
   xmlns:svg="http://www.w3.org/2000/svg"
   xmlns="http://www.w3.org/2000/svg"
   xmlns:sodipodi="http://sodipodi.sourceforge.net/DTD/sodipodi-0.dtd"
   xmlns:inkscape="http://www.inkscape.org/namespaces/inkscape"
   sodipodi:docname="low_birthweight_icon.svg"
   inkscape:version="1.0beta2 (2b71d25, 2019-12-03)"
   id="svg8"
   version="1.1"
   viewBox="0 0 135.46666 135.46667"
   height="512"
   width="512">
  <defs
     id="defs2" />
  <sodipodi:namedview
     inkscape:window-maximized="0"
     inkscape:window-y="0"
     inkscape:window-x="1366"
     inkscape:window-height="1080"
     inkscape:window-width="1920"
     inkscape:pagecheckerboard="true"
     units="px"
     showgrid="false"
     inkscape:document-rotation="0"
     inkscape:current-layer="layer1"
     inkscape:document-units="px"
     inkscape:cy="302.43373"
     inkscape:cx="221.94079"
     inkscape:zoom="0.98994949"
     inkscape:pageshadow="2"
     inkscape:pageopacity="0.78039216"
     borderopacity="1.0"
     bordercolor="#666666"
     pagecolor="#ffffff"
     id="base" />
  <metadata
     id="metadata5">
    <rdf:RDF>
      <cc:Work
         rdf:about="">
        <dc:format>image/svg+xml</dc:format>
        <dc:type
           rdf:resource="http://purl.org/dc/dcmitype/StillImage" />
        <dc:title></dc:title>
      </cc:Work>
    </rdf:RDF>
  </metadata>
  <g
     id="layer1"
     inkscape:groupmode="layer"
     inkscape:label="Layer 1">
    <g
       transform="matrix(1.7871505,0,0,1.7871505,75.523133,8.9730216)"
       id="g144">
	<path
   inkscape:connector-curvature="0"
   id="path140"
   fill="#FFFFFF"
   data-old_color="#030104"
   class="active-path"
   data-original="#030104"
   d="M 21.125,0 H 4.875 C 2.182,0 0,2.182 0,4.875 v 16.25 C 0,23.818 2.182,26 4.875,26 h 16.25 C 23.818,26 26,23.818 26,21.125 V 4.875 C 26,2.182 23.818,0 21.125,0 Z M 18,12 H 8 L 4,7 c 0,0 3,-4 9,-4 6,0 9,4 9,4 z" />

	<polygon
   id="polygon142"
   fill="#FFFFFF"
   data-old_color="#030104"
   class="active-path"
   data-original="#030104"
   points="13.02,11 15.613,11 16.982,5.01 " />

</g>
    <g
       style="fill:#ffffff"
       transform="matrix(0.19955435,0,0,0.19955435,5.8568657,22.209358)"
       id="g307">
      <path
         style="fill:#ffffff"
         inkscape:connector-curvature="0"
         d="m 173.57031,175.74219 c 48.44922,0 87.8711,-39.42188 87.8711,-87.871096 C 261.44141,39.417969 222.01953,0 173.57031,0 125.11719,0 85.699219,39.417969 85.699219,87.871094 c 0,48.449216 39.417971,87.871096 87.871091,87.871096 z m 0,-145.484378 c 31.76563,0 57.61328,25.84375 57.61328,57.613282 0,31.765626 -25.84765,57.613276 -57.61328,57.613276 -31.76953,0 -57.61328,-25.84765 -57.61328,-57.613276 0,-31.769532 25.84375,-57.613282 57.61328,-57.613282 z m 0,0"
         id="path293" />
      <path
         style="fill:#ffffff"
         inkscape:connector-curvature="0"
         d="m 263.62109,262.00391 c 24.08203,-12.23047 52.45703,-34.4375 70.17578,-52.16016 17.76172,-17.76172 17.76172,-46.66406 0,-64.42969 -8.60546,-8.60547 -20.04687,-13.34375 -32.21484,-13.34375 -12.16797,0 -23.60937,4.73828 -32.21484,13.34375 -31.125,31.125 -61.56641,45.6211 -95.79688,45.6211 -34.23047,0 -64.67187,-14.4961 -95.796872,-45.6211 -17.761719,-17.76172 -46.664063,-17.76172 -64.429688,0 C 4.738281,154.01953 0,165.46094 0,177.62891 c 0,12.16796 4.738281,23.60937 13.34375,32.21484 17.71875,17.71875 46.09375,39.92969 70.175781,52.16016 v 71.44921 c 0,1.86329 0.0625,3.71485 0.175781,5.54688 -29.003906,36.35156 -44.871093,81.52344 -44.871093,128.38281 0,24.60156 20.015625,44.61719 44.617187,44.61719 24.597654,0 44.613284,-20.01563 44.613284,-44.61719 0,-17.80078 3.95703,-34.99219 11.44531,-50.57812 10.51563,4.3164 22.01953,6.70312 34.07031,6.70312 12.05078,0 23.55469,-2.38672 34.07032,-6.70312 7.48828,15.58593 11.44531,32.77734 11.44531,50.57812 0,24.60156 20.01562,44.61328 44.61719,44.61719 24.60156,0 44.61328,-20.01563 44.61328,-44.61719 0,-46.85937 -15.86719,-92.03125 -44.86719,-128.38281 0.10937,-1.83594 0.17578,-3.68359 0.17578,-5.54688 V 262.00391 Z M 34.734375,166.80859 c 2.984375,-2.98047 6.90625,-4.47265 10.824219,-4.47265 3.917968,0 7.835937,1.49218 10.820312,4.47265 36.660156,36.66407 74.992184,54.48438 117.191404,54.48438 42.19532,0 80.52735,-17.82031 117.19141,-54.48438 2.89062,-2.89062 6.73047,-4.48047 10.82031,-4.48047 4.08594,0 7.92969,1.58985 10.82031,4.48047 5.96485,5.96485 5.96485,15.67578 0,21.64063 -17.51562,17.51562 -47.88281,40.95703 -69.65625,49.89844 -5.67187,2.33203 -9.3789,7.85937 -9.3789,13.99218 v 44.86719 H 113.77344 v -44.86719 c 0,-6.13281 -3.70703,-11.66015 -9.38281,-13.99218 -21.773442,-8.94141 -52.136724,-32.38282 -69.652349,-49.89844 -2.890625,-2.89063 -4.484375,-6.73047 -4.484375,-10.82031 0,-4.08594 1.59375,-7.92969 4.480469,-10.82032 z m 79.039065,166.64453 v -5.98828 h 119.59375 v 5.98828 c 0,32.97266 -26.82422,59.79688 -59.79688,59.79688 -32.97265,0 -59.79687,-26.82422 -59.79687,-59.79688 z M 97.796875,467.38281 c 0,7.91797 -6.441406,14.35938 -14.359375,14.35938 -7.917969,0 -14.355469,-6.44141 -14.355469,-14.35938 -0.0039,-32.35156 8.863281,-63.75781 25.347657,-90.99219 4.996093,9.17188 11.542972,17.37891 19.285152,24.28125 -10.40625,20.41407 -15.917965,43.13672 -15.917965,66.71094 z m 180.261715,0 c 0,7.91797 -6.4414,14.35938 -14.35547,14.35938 -7.91796,0 -14.35937,-6.44141 -14.35937,-14.35938 0,-23.57422 -5.51172,-46.29687 -15.91797,-66.71094 7.74219,-6.90234 14.28906,-15.10937 19.28516,-24.28125 16.48437,27.23438 25.34765,58.64063 25.34765,90.99219 z m 0,0"
         id="path295" />
    </g>
  </g>
</svg>
