<?xml version="1.0"?>
<svg xmlns="http://www.w3.org/2000/svg" xmlns:xlink="http://www.w3.org/1999/xlink" version="1.1" id="Capa_1" x="0px" y="0px" viewBox="0 0 275.454 275.454" style="enable-background:new 0 0 275.454 275.454;" xml:space="preserve" width="512px" height="512px" class=""><g><g>
	<path d="M52.277,191.97l-0.734,0.735c-3.356,3.355-3.356,8.816-0.001,12.172l3.407,3.408c1.434,1.436,3.225,2.226,5.042,2.226   c2.4,0,4.622-1.387,5.941-3.71l4.188-7.373l20.622,8.618c1.789,0.748,3.893,1.144,6.085,1.144c4.809,0,9.648-1.854,12.631-4.836   l56.166-56.168c4.476-4.477,6.132-12.872,3.691-18.715l-8.605-20.592l7.279-4.136c2.041-1.16,3.372-3.019,3.653-5.1   c0.281-2.081-0.509-4.226-2.168-5.885l-3.407-3.407c-1.62-1.621-3.781-2.513-6.086-2.513c-2.305,0-4.466,0.892-6.086,2.513   l-0.654,0.654l-1.392-3.329c-2.267-5.426-7.496-13.226-11.659-17.389L111.15,41.246c-1.62-1.621-3.781-2.513-6.086-2.513   c-2.305,0-4.466,0.892-6.086,2.512l-7.951,7.951c-1.621,1.62-2.513,3.781-2.513,6.086c0,2.305,0.892,4.466,2.513,6.087l7.254,7.252   l-68.39,68.39l-7.253-7.253c-1.62-1.621-3.781-2.513-6.086-2.513s-4.466,0.892-6.086,2.513l-7.949,7.949   c-3.356,3.355-3.356,8.816,0,12.172l29.043,29.042c4.157,4.158,11.957,9.388,17.387,11.657L52.277,191.97z M146.981,103.876   l13.035,31.194c1.46,3.494,0.464,8.545-2.214,11.223l-50.24,50.24c-2.678,2.678-7.729,3.674-11.223,2.214l-31.193-13.036   c-3.494-1.46-4.162-4.847-1.484-7.525l75.795-75.795C142.135,99.714,145.521,100.382,146.981,103.876z M98.744,91.304   l17.245-17.246c1.339-1.339,3.53-1.339,4.869,0l8.277,8.276c1.339,1.339,1.339,3.53,0,4.869l-17.246,17.246   c-1.339,1.339-3.53,1.339-4.869,0l-8.276-8.276C97.406,94.834,97.406,92.643,98.744,91.304z M43.768,167.703l-8.276-8.276   c-1.338-1.339-1.338-3.53,0-4.869l17.245-17.245c1.339-1.339,3.53-1.339,4.869,0l8.277,8.275c1.339,1.339,1.339,3.53,0,4.869   l-17.246,17.246C47.299,169.041,45.107,169.041,43.768,167.703z" data-original="#000000" class="active-path" data-old_color="#000000" fill="#FFFFFF"/>
	<path d="M188.293,142.747c0.355,0,0.718-0.041,1.079-0.127l24.445-5.813c2.497-0.594,4.04-3.1,3.446-5.597   c-0.594-2.497-3.097-4.043-5.597-3.446l-24.445,5.812c-2.497,0.594-4.04,3.1-3.446,5.597   C184.283,141.31,186.189,142.747,188.293,142.747z" data-original="#000000" class="active-path" data-old_color="#000000" fill="#FFFFFF"/>
	<path d="M183.586,156.654l22.014,8.995c0.575,0.235,1.171,0.347,1.756,0.347c1.832,0,3.568-1.09,4.304-2.891   c0.972-2.376-0.168-5.089-2.544-6.06l-22.014-8.995c-2.378-0.974-5.09,0.168-6.06,2.544   C180.07,152.97,181.21,155.683,183.586,156.654z" data-original="#000000" class="active-path" data-old_color="#000000" fill="#FFFFFF"/>
	<path d="M185.696,186.205c0.879,1.423,2.4,2.206,3.959,2.206c0.833,0,1.677-0.225,2.438-0.694c2.184-1.349,2.86-4.213,1.512-6.396   l-12.16-19.686c-1.349-2.184-4.213-2.861-6.396-1.512c-2.184,1.349-2.86,4.213-1.512,6.396L185.696,186.205z" data-original="#000000" class="active-path" data-old_color="#000000" fill="#FFFFFF"/>
	<path d="M266.275,218.363H43c-5.069,0-9.179,4.109-9.179,9.179c0,5.069,4.109,9.179,9.179,9.179h223.275   c5.069,0,9.179-4.109,9.179-9.179C275.454,222.472,271.345,218.363,266.275,218.363z" data-original="#000000" class="active-path" data-old_color="#000000" fill="#FFFFFF"/>
</g></g> </svg>
