<?xml version="1.0"?>
<svg xmlns="http://www.w3.org/2000/svg" height="512px" viewBox="-125 -21 682 682.66669" width="512px" class=""><g><path d="m318.835938 74.414062v-27.726562h-47.519532c-7.917968-26.953125-32.886718-46.6875-62.367187-46.6875-29.484375 0-54.449219 19.734375-62.367188 46.6875h-47.519531v27.726562h-105.730469v565.585938h431.230469v-565.585938zm-182.273438 9.773438h45.058594l-.152344-18.898438c0-.171874-.003906-.34375-.011719-.519531.117188-15.058593 12.410157-27.269531 27.492188-27.269531s27.371093 12.210938 27.488281 27.269531c-.003906.171875-.007812.34375-.007812.519531l-.152344 18.898438h45.058594v43.3125h-144.773438zm250.5 518.3125h-356.230469v-490.585938h68.230469v53.085938h219.769531v-53.085938h68.230469zm0 0" data-original="#000000" class="active-path" data-old_color="#000000" fill="#FFFFFF"/><path d="m91.761719 239.375h234.371093v37.5h-234.371093zm0 0" data-original="#000000" class="active-path" data-old_color="#000000" fill="#FFFFFF"/><path d="m91.761719 321.875h234.371093v37.5h-234.371093zm0 0" data-original="#000000" class="active-path" data-old_color="#000000" fill="#FFFFFF"/><path d="m91.761719 404.375h234.371093v37.5h-234.371093zm0 0" data-original="#000000" class="active-path" data-old_color="#000000" fill="#FFFFFF"/><path d="m91.761719 486.875h234.371093v37.5h-234.371093zm0 0" data-original="#000000" class="active-path" data-old_color="#000000" fill="#FFFFFF"/></g> </svg>
