<?xml version="1.0"?>
<svg xmlns="http://www.w3.org/2000/svg" xmlns:xlink="http://www.w3.org/1999/xlink" version="1.1" id="Capa_1" x="0px" y="0px" viewBox="0 0 325 325" style="enable-background:new 0 0 325 325;" xml:space="preserve" width="512px" height="512px" class=""><g><g>
	<path d="M323.242,142.395L182.604,1.757C181.479,0.632,179.952,0,178.362,0c-1.592,0-3.117,0.632-4.243,1.758l-44.686,44.688   c-1.684,1.684-2.231,4.154-1.365,6.373c0.372,1.008,8.777,25.021-20.728,54.525C89.111,125.572,72.893,129.4,62.497,129.4   c-5.991,0-9.63-1.313-9.632-1.313c-2.217-0.865-4.738-0.335-6.423,1.348L1.757,174.121c-2.343,2.343-2.343,6.142,0,8.484   l140.637,140.637c1.125,1.126,2.651,1.758,4.242,1.758c1.592,0,3.117-0.632,4.243-1.758l44.687-44.688   c1.684-1.684,2.212-4.204,1.347-6.423c-0.095-0.243-9.121-24.607,20.744-54.473c18.232-18.232,34.45-22.058,44.846-22.058   c5.99,0,9.627,1.313,9.627,1.313c2.221,0.867,4.741,0.338,6.425-1.347l44.689-44.688c1.126-1.126,1.758-2.651,1.758-4.243   C325,145.046,324.368,143.52,323.242,142.395z M272.534,184.616c-2.4-0.517-5.809-1.015-10.032-1.015   c-12.663,0-32.194,4.436-53.33,25.573c-28.421,28.42-26.617,53.824-24.558,63.36l-37.979,37.979L14.486,178.363l37.977-37.98   c2.401,0.518,5.81,1.016,10.034,1.016c12.663,0,32.193-4.436,53.327-25.57c28.423-28.422,26.619-53.828,24.56-63.364l37.978-37.979   l132.153,132.151L272.534,184.616z" data-original="#000000" class="active-path" data-old_color="#000000" fill="#FFFFFF"/>
	<path d="M54.757,204.694c0,1.591,0.632,3.117,1.758,4.242l14.906,14.907c0.002,0.001,0.003,0.003,0.005,0.005   c0.002,0.002,0.004,0.003,0.004,0.003l43.636,43.636c1.125,1.126,2.651,1.758,4.242,1.758c1.591,0,3.117-0.632,4.242-1.758   l143.936-143.937c1.126-1.125,1.758-2.651,1.758-4.242c0-1.592-0.632-3.117-1.758-4.243l-43.634-43.633   c-0.003-0.003-0.004-0.005-0.007-0.008c-0.003-0.003-0.005-0.004-0.008-0.007l-14.902-14.901c-2.342-2.344-6.143-2.344-8.484,0   L56.515,200.452C55.389,201.577,54.757,203.103,54.757,204.694z M119.308,254.76l-35.154-35.154L219.603,84.153l35.156,35.155   L119.308,254.76z M204.694,69.244l6.425,6.425L75.669,211.121l-6.427-6.427L204.694,69.244z" data-original="#000000" class="active-path" data-old_color="#000000" fill="#FFFFFF"/>
	<path d="M185.897,153.017c-4.392-4.392-10.23-6.81-16.441-6.81c-12.818,0-23.249,10.43-23.25,23.251   c0.001,12.819,10.432,23.249,23.25,23.249c6.211,0,12.05-2.418,16.441-6.809s6.81-10.23,6.809-16.439   C192.706,163.247,190.288,157.408,185.897,153.017z M177.411,177.412c-2.125,2.125-4.95,3.295-7.956,3.295   c-6.203,0-11.249-5.047-11.25-11.249c0.001-6.204,5.047-11.251,11.25-11.251c3.006,0,5.831,1.17,7.956,3.295   c2.124,2.125,3.294,4.949,3.294,7.956C180.705,172.463,179.535,175.287,177.411,177.412z" data-original="#000000" class="active-path" data-old_color="#000000" fill="#FFFFFF"/>
</g></g> </svg>
