<?xml version="1.0"?>
<svg xmlns="http://www.w3.org/2000/svg" id="Capa_1" enable-background="new 0 0 512 512" height="512px" viewBox="0 0 512 512" width="512px" class=""><g><g><path d="m89.246 507.607c5.857 5.858 15.355 5.858 21.213 0 5.858-5.857 5.858-15.355 0-21.213l-10.607-10.607 42.427-42.427 42.427 42.427c5.857 5.858 15.355 5.859 21.213 0 5.858-5.858 5.858-15.355 0-21.213l-21.214-21.213c7.715-7.715 179.825-179.825 180.312-180.313 14.122-14.121 16.641-34.85 8.801-51.228l33.625-33.625c13.828-13.827 16.749-34.485 8.782-51.209l91.38-91.38c5.858-5.858 5.858-15.355 0-21.213-5.857-5.858-15.355-5.858-21.213 0l-91.38 91.38c-16.724-7.966-37.382-5.044-51.209 8.782l-33.625 33.625c-16.388-7.845-37.116-5.311-51.227 8.802-16.465 16.467-158.976 158.978-180.311 180.313l-21.214-21.213c-5.857-5.858-15.355-5.858-21.213 0s-5.858 15.355 0 21.213l42.427 42.426-42.427 42.427-10.607-10.607c-5.856-5.858-15.354-5.858-21.213 0-5.858 5.857-5.858 15.355 0 21.213 11.402 11.401 77.543 77.543 84.853 84.853zm275.772-381.838c5.85-5.848 15.366-5.849 21.214 0 5.849 5.849 5.849 15.365 0 21.214l-31.82 31.82-21.214-21.214zm-63.64 42.427 42.427 42.426c5.863 5.864 5.862 15.35 0 21.213l-95.459 95.459-63.64-63.639 21.214-21.214 10.606 10.606c5.857 5.858 15.355 5.859 21.213 0 5.858-5.858 5.858-15.355 0-21.213l-10.606-10.606 21.214-21.214 10.606 10.607c5.857 5.858 15.354 5.858 21.213 0 5.858-5.858 5.858-15.355 0-21.213l-10.606-10.607 10.606-10.606c5.862-5.862 15.35-5.862 21.212.001zm-180.311 159.098 10.606 10.607c5.857 5.858 15.354 5.858 21.213 0 5.858-5.858 5.858-15.355 0-21.213l-10.606-10.607 21.213-21.213 63.64 63.64-63.64 63.64c-7.231-7.231-56.233-56.233-63.64-63.64zm-21.214 63.64 21.214 21.213-42.427 42.427-21.213-21.213z" data-original="#000000" class="active-path" data-old_color="#000000" fill="#FFFFFF"/></g></g> </svg>
