<?xml version="1.0"?>
<svg xmlns="http://www.w3.org/2000/svg" height="512px" viewBox="0 0 512 512" width="512px" class=""><g><path d="m466.871094 323.445312 37.449218-24.964843-16.640624-24.960938-39.476563 26.320313c-10.542969-10-23.152344-17.835938-37.113281-22.800782l9.621094-48.097656-29.417969-5.882812-9.621094 48.097656c-1.875-.101562-3.769531-.15625-5.671875-.15625-21.738281 0-42.285156-5.171875-60.496094-14.335938l27.496094-36.664062-24-18-28.683594 38.246094c-23.695312-19.511719-40.640625-46.925782-46.78125-78.167969l46.101563-11.527344-7.273438-29.101562-41.453125 10.363281c-1.039062-26.292969-11.78125-50.128906-28.746094-68.015625l26.316407-39.476563-24.960938-16.640624-24.964843 37.449218c-15.464844-8.980468-33.417969-14.128906-52.554688-14.128906-15.734375 0-30.664062 3.484375-44.074219 9.710938l-35.320312-35.316407-21.210938 21.210938 30.921875 30.925781c-18.113281 16.101562-30.632812 38.363281-34.242187 63.46875h-32.074219v30h31.339844c.878906 20.746094 3.578125 41.1875 8.097656 61.207031l-39.4375 12.507813 9.578125 28.570312 37.765625-12.109375c3.148438 9.828125 6.722656 19.542969 10.773438 29.117188 5.433593 12.847656 11.601562 25.285156 18.480468 37.28125l-38.917968 25.945312 16.640624 24.960938 38.351563-25.566407c11.640625 16.714844 24.777344 32.4375 39.378906 47.035157 6.5 6.503906 13.230469 12.699219 20.164063 18.621093l-26.820313 26.820313 21.214844 21.214844 29.414063-29.417969c20.421874 14.558594 42.378906 26.835938 65.683593 36.691406.746094.316406 1.503907.609375 2.253907.921875l-16.855469 41.527344 27.796875 11.28125 17.257812-42.523437c28.722656 9.070312 58.453125 14.28125 88.84375 15.570312v31.34375h30v-32.074219c25.105469-3.609375 47.367188-16.128906 63.46875-34.242187l30.925782 30.921875 21.210937-21.210938-35.320313-35.320312c4.214844-9.066407 7.167969-18.835938 8.636719-29.074219h32.074219v-30h-32.074219c-1.945312-13.511719-6.464843-26.203125-13.054687-37.554688zm-90.871094 127.554688c-173.691406 0-315-141.308594-315-315 0-41.355469 33.644531-75 75-75s75 33.644531 75 75c0 90.980469 74.019531 165 165 165 41.355469 0 75 33.644531 75 75s-33.644531 75-75 75zm0 0" data-original="#000000" class="active-path" data-old_color="#000000" fill="#FFFFFF"/><path d="m362 120c16.542969 0 30 13.457031 30 30 0 33.085938 26.914062 60 60 60s60-26.914062 60-60c0-82.710938-67.289062-150-150-150-33.085938 0-60 26.914062-60 60s26.914062 60 60 60zm0-90c66.167969 0 120 53.832031 120 120 0 16.542969-13.457031 30-30 30s-30-13.457031-30-30c0-33.085938-26.914062-60-60-60-16.542969 0-30-13.457031-30-30s13.457031-30 30-30zm0 0" data-original="#000000" class="active-path" data-old_color="#000000" fill="#FFFFFF"/><path d="m136 91c-24.8125 0-45 20.1875-45 45s20.1875 45 45 45 45-20.1875 45-45-20.1875-45-45-45zm0 60c-8.269531 0-15-6.730469-15-15s6.730469-15 15-15 15 6.730469 15 15-6.730469 15-15 15zm0 0" data-original="#000000" class="active-path" data-old_color="#000000" fill="#FFFFFF"/><path d="m376 331c-24.8125 0-45 20.1875-45 45s20.1875 45 45 45 45-20.1875 45-45-20.1875-45-45-45zm0 60c-8.269531 0-15-6.730469-15-15s6.730469-15 15-15 15 6.730469 15 15-6.730469 15-15 15zm0 0" data-original="#000000" class="active-path" data-old_color="#000000" fill="#FFFFFF"/><path d="m136 247.214844-21.214844-21.210938 21.214844-21.214844 21.210938 21.214844zm0 0" data-original="#000000" class="active-path" data-old_color="#000000" fill="#FFFFFF"/><path d="m196 337.214844-21.214844-21.210938 21.214844-21.214844 21.210938 21.214844zm0 0" data-original="#000000" class="active-path" data-old_color="#000000" fill="#FFFFFF"/><path d="m286 397.21875-21.214844-21.214844 21.214844-21.210937 21.210938 21.210937zm0 0" data-original="#000000" class="active-path" data-old_color="#000000" fill="#FFFFFF"/><path d="m271 294.78125 21.214844 21.214844-21.214844 21.214844-21.210938-21.214844zm0 0" data-original="#000000" class="active-path" data-old_color="#000000" fill="#FFFFFF"/><path d="m196 262.214844-21.214844-21.210938 21.214844-21.214844 21.210938 21.214844zm0 0" data-original="#000000" class="active-path" data-old_color="#000000" fill="#FFFFFF"/></g> </svg>
